<svg xmlns="http://www.w3.org/2000/svg" xmlns:xlink="http://www.w3.org/1999/xlink" version="1.1" id="Layer_1" x="0px" y="0px" width="30px" height="30px" viewBox="0 0 48 48" style="enable-background:new 0 0 48 48;" xml:space="preserve">
<style type="text/css">
	.st0{fill:#495057;}
</style>
<g>
	<path class="st0" d="M14.6,13.6c0,5.2,4.2,9.4,9.4,9.4s9.4-4.2,9.4-9.4S29.2,4.3,24,4.3l0,0C18.8,4.3,14.6,8.5,14.6,13.6z    M29.7,13.6c0,3.1-2.5,5.6-5.6,5.6c-3.1,0-5.6-2.5-5.6-5.6c0-3.1,2.5-5.6,5.6-5.6C27.1,8,29.6,10.5,29.7,13.6L29.7,13.6L29.7,13.6z   "></path>
	<path class="st0" d="M32.5,41.8c1.6-0.7,3-1.7,4.3-2.8c1-0.8,1.3-2.2,0.7-3.3l-2.5-4.9c-0.7-1.4-2.1-2.2-3.6-2.2H16.5   c-1.5,0-2.9,0.9-3.6,2.2l-2.5,4.9c-0.5,1.1-0.2,2.5,0.7,3.3c1.8,1.5,3.9,2.7,6.1,3.5C22.2,44.4,27.7,44.1,32.5,41.8z"></path>
</g>
</svg>