<svg id="Layer_1" data-name="Layer 1" xmlns="http://www.w3.org/2000/svg" viewBox="0 0 279.9 104.43"><defs><style>.cls-1,.cls-2{fill:none;}.cls-2{isolation:isolate;font-size:17.33px;font-family:ArialMT, Arial;letter-spacing:0.92em;}.cls-3{letter-spacing:0.85em;}.cls-4{letter-spacing:0.9em;}</style></defs><title>ePOS-Restlogo1</title><path class="cls-1" d="M173.2,94c0,7.6-2.7,13.5-8.2,17.7s-12.3,6.3-20.6,6.3H126.6v26h-8.3V70.7h27.4c8.3,0,14.9,2.1,19.9,6.3S173.2,86.9,173.2,94Zm-8.4.4c0-5.2-1.8-9.1-5.3-11.9s-8.3-4.1-14.4-4.1H126.6v32.2h18.1c6.1,0,10.9-1.5,14.6-4.4A14.5,14.5,0,0,0,164.8,94.4Z" transform="translate(-36.6 -69.2)"/><path class="cls-1" d="M243.7,80.5a37.47,37.47,0,0,1,10.5,26.7A37.54,37.54,0,0,1,243.6,134c-7,7.5-16,11.2-26.9,11.2s-19.8-3.7-26.8-11.1a37.47,37.47,0,0,1-10.5-26.7A37.54,37.54,0,0,1,190,80.6c7-7.5,16-11.2,26.9-11.2S236.7,73.1,243.7,80.5Zm-6.3,48.3a30.34,30.34,0,0,0,8.1-21.4,30.4,30.4,0,0,0-8.2-21.5,27.07,27.07,0,0,0-20.7-8.8c-8.3,0-15.2,2.9-20.6,8.7a30.34,30.34,0,0,0-8.1,21.4,30.4,30.4,0,0,0,8.2,21.5,27.07,27.07,0,0,0,20.7,8.8C225.1,137.5,232,134.7,237.4,128.8Z" transform="translate(-36.6 -69.2)"/><path class="cls-1" d="M271.8,89a10.45,10.45,0,0,0,4.1,8.7c2.8,2.1,8,4,15.8,5.7,8.3,1.8,14.4,4.3,18.2,7.6s5.7,7.7,5.7,13.2a18.37,18.37,0,0,1-7,15.1q-7.05,5.7-18,5.7a43.56,43.56,0,0,1-29.9-11.7l5.1-6.1a38.91,38.91,0,0,0,11.8,7.8,33.2,33.2,0,0,0,13.3,2.5c4.9,0,8.8-1.2,11.8-3.5a11,11,0,0,0,4.5-9.1,10.31,10.31,0,0,0-4-8.6c-2.7-2.1-7.7-3.9-15.1-5.4-8.7-1.9-14.9-4.4-18.8-7.6s-5.8-7.7-5.8-13.7a17.82,17.82,0,0,1,6.8-14.4c4.5-3.8,10.3-5.7,17.3-5.7a39.68,39.68,0,0,1,25.7,9l-4.8,6.4c-6.5-5.3-13.5-8-21.1-8-4.7,0-8.4,1.1-11.3,3.4A11,11,0,0,0,271.8,89Z" transform="translate(-36.6 -69.2)"/><path class="cls-1" d="M108.7,92.2l-.7.4a37.85,37.85,0,0,1,3,14.7,36.63,36.63,0,0,1-70.7,14l5.3-3A31.13,31.13,0,0,1,74.2,76.2,30.4,30.4,0,0,1,98.7,88.7l5.3-3h0l.7-.4A37.42,37.42,0,0,0,74.1,69.2c-20.7,0-37.5,17-37.5,38.1s16.8,38.1,37.5,38.1,37.5-17,37.5-38.1A35.08,35.08,0,0,0,108.7,92.2Z" transform="translate(-36.6 -69.2)"/><path class="cls-1" d="M33.3,125.7" transform="translate(-36.6 -69.2)"/><path class="cls-1" d="M104.9,85.4" transform="translate(-36.6 -69.2)"/><path class="cls-1" d="M104.3,84.7,39.4,121.2l.4.8,64.9-36.6a1.44,1.44,0,0,0-.2-.3A1.47,1.47,0,0,0,104.3,84.7Z" transform="translate(-36.6 -69.2)"/><text class="cls-2" transform="translate(4.09 98.8)">RES<tspan class="cls-3" x="83.61" y="0">T</tspan><tspan x="108.91" y="0">AURAN</tspan><tspan class="cls-4" x="249.54" y="0">T</tspan></text></svg>