<svg id="Layer_1" data-name="Layer 1" xmlns="http://www.w3.org/2000/svg" viewBox="0 0 275.81 102.93"><defs><style>.cls-1{isolation:isolate;font-size:17.33px;font-family:ArialMT, Arial;letter-spacing:0.92em;}.cls-1,.cls-4{fill:none;}.cls-2{letter-spacing:0.85em;}.cls-3{letter-spacing:0.9em;}</style></defs><title>ePOS-Restlogo</title><text class="cls-1" transform="translate(0 97.3)">RES<tspan class="cls-2" x="83.61" y="0">T</tspan><tspan x="108.91" y="0">AURAN</tspan><tspan class="cls-3" x="249.54" y="0">T</tspan></text><path class="cls-4" d="M165.6,77c-5-4.2-11.6-6.3-19.9-6.3H118.3V144h8.3V118h17.8c8.3,0,15.1-2.1,20.6-6.3s8.2-10.1,8.2-17.7C173.2,86.9,170.7,81.2,165.6,77Zm-6.3,29.2c-3.7,2.9-8.5,4.4-14.6,4.4H126.6V78.4h18.5c6.1,0,10.9,1.3,14.4,4.1s5.3,6.7,5.3,11.9A14.5,14.5,0,0,1,159.3,106.2Z" transform="translate(-40.69 -70.7)"/></svg>