<?xml version="1.0" encoding="utf-8"?>
<!-- Generator: Adobe Illustrator 23.0.3, SVG Export Plug-In . SVG Version: 6.00 Build 0)  -->
<svg version="1.1" id="Layer_1" xmlns="http://www.w3.org/2000/svg" xmlns:xlink="http://www.w3.org/1999/xlink" x="0px" y="0px"
	 viewBox="0 0 348 208" style="enable-background:new 0 0 348 208;" xml:space="preserve">
<style type="text/css">
	.st0{fill:#FFFFFF;}
	.st1{font-family:'ArialMT';}
	.st2{font-size:17.3289px;}
	.st3{letter-spacing:15;}
</style>
<g>
	<g>
		<g>
			<path class="st0" d="M173.2,75c0,7.6-2.7,13.5-8.2,17.7S152.7,99,144.4,99h-17.8v26h-8.3V51.7h27.4c8.3,0,14.9,2.1,19.9,6.3
				C170.7,62.2,173.2,67.9,173.2,75z M164.8,75.4c0-5.2-1.8-9.1-5.3-11.9s-8.3-4.1-14.4-4.1h-18.5v32.2h18.1
				c6.1,0,10.9-1.5,14.6-4.4C163,84.2,164.8,80.2,164.8,75.4z"/>
			<path class="st0" d="M243.7,61.5c7,7.4,10.5,16.3,10.5,26.7s-3.5,19.3-10.6,26.8c-7,7.5-16,11.2-26.9,11.2s-19.8-3.7-26.8-11.1
				c-7-7.4-10.5-16.3-10.5-26.7s3.5-19.3,10.6-26.8c7-7.5,16-11.2,26.9-11.2C227.7,50.4,236.7,54.1,243.7,61.5z M237.4,109.8
				c5.4-5.8,8.1-13,8.1-21.4s-2.7-15.6-8.2-21.5s-12.4-8.8-20.7-8.8S201.4,61,196,66.8c-5.4,5.8-8.1,13-8.1,21.4s2.7,15.6,8.2,21.5
				c5.5,5.9,12.4,8.8,20.7,8.8S232,115.7,237.4,109.8z"/>
			<path class="st0" d="M271.8,70c0,3.7,1.4,6.6,4.1,8.7c2.8,2.1,8,4,15.8,5.7c8.3,1.8,14.4,4.3,18.2,7.6c3.8,3.2,5.7,7.7,5.7,13.2
				c0,6.3-2.3,11.3-7,15.1s-10.7,5.7-18,5.7c-11.2,0-21.2-3.9-29.9-11.7l5.1-6.1c3.9,3.6,7.8,6.2,11.8,7.8c3.9,1.7,8.4,2.5,13.3,2.5
				s8.8-1.2,11.8-3.5s4.5-5.4,4.5-9.1c0-3.6-1.3-6.5-4-8.6s-7.7-3.9-15.1-5.4c-8.7-1.9-14.9-4.4-18.8-7.6s-5.8-7.7-5.8-13.7
				c0-5.9,2.3-10.7,6.8-14.4c4.5-3.8,10.3-5.7,17.3-5.7c9.7,0,18.3,3,25.7,9l-4.8,6.4c-6.5-5.3-13.5-8-21.1-8
				c-4.7,0-8.4,1.1-11.3,3.4C273.2,63.8,271.8,66.6,271.8,70z"/>
		</g>
		<g>
			<path class="st0" d="M108.7,73.2l-0.7,0.4c1.9,4.5,3,9.5,3,14.7c0,20.6-16.4,37.2-36.7,37.2c-15.4,0-28.5-9.6-34-23.2l5.3-3
				c-1.3-3.4-2-7.2-2-11c0-17.2,13.7-31.1,30.6-31.1c10,0,18.9,4.9,24.5,12.5l5.3-3l0,0l0.7-0.4c-6.8-9.7-18-16.1-30.6-16.1
				c-20.7,0-37.5,17-37.5,38.1s16.8,38.1,37.5,38.1s37.5-17,37.5-38.1C111.8,83,110.7,77.9,108.7,73.2z"/>
			<g>
				<path class="st0" d="M33.3,106.7"/>
				<path class="st0" d="M104.9,66.4"/>
			</g>
			<path class="st0" d="M104.3,65.7l-64.9,36.5l0.4,0.8l64.9-36.6c0,0-0.1-0.2-0.2-0.3C104.5,66,104.3,65.7,104.3,65.7z"/>
		</g>
	</g>
	<g>
		<text transform="matrix(1 0 0 1 40.6934 149)" class="st0 st1 st2 st3">RESTAURANT</text>
	</g>
</g>
</svg>
