<?xml version="1.0" encoding="utf-8"?>
<!-- Generator: Adobe Illustrator 21.0.0, SVG Export Plug-In . SVG Version: 6.00 Build 0)  -->
<svg version="1.1" id="Layer_1" xmlns="http://www.w3.org/2000/svg" xmlns:xlink="http://www.w3.org/1999/xlink" x="0px" y="0px"
	 viewBox="0 0 348 208" style="enable-background:new 0 0 348 208;" xml:space="preserve">
<style type="text/css">
	.st0{fill:#404040;}
	.st1{fill:#F16623;}
	.st2{fill:#545456;}
	.st3{font-family:'GothamHTF-Book';}
	.st4{font-size:17.3289px;}
	.st5{letter-spacing:16;}
</style>
<g>
	<g>
		<g>
			<path class="st0" d="M173.2,94c0,7.6-2.7,13.5-8.2,17.7c-5.5,4.2-12.3,6.3-20.6,6.3h-17.8V144h-8.3V70.7h27.4
				c8.3,0,14.9,2.1,19.9,6.3C170.7,81.2,173.2,86.9,173.2,94z M164.8,94.4c0-5.2-1.8-9.1-5.3-11.9c-3.5-2.8-8.3-4.1-14.4-4.1h-18.5
				v32.2h18.1c6.1,0,10.9-1.5,14.6-4.4C163,103.2,164.8,99.2,164.8,94.4z"/>
			<path class="st0" d="M243.7,80.5c7,7.4,10.5,16.3,10.5,26.7s-3.5,19.3-10.6,26.8c-7,7.5-16,11.2-26.9,11.2
				c-10.9,0-19.8-3.7-26.8-11.1c-7-7.4-10.5-16.3-10.5-26.7s3.5-19.3,10.6-26.8c7-7.5,16-11.2,26.9-11.2
				C227.7,69.4,236.7,73.1,243.7,80.5z M237.4,128.8c5.4-5.8,8.1-13,8.1-21.4s-2.7-15.6-8.2-21.5s-12.4-8.8-20.7-8.8
				s-15.2,2.9-20.6,8.7c-5.4,5.8-8.1,13-8.1,21.4s2.7,15.6,8.2,21.5c5.5,5.9,12.4,8.8,20.7,8.8S232,134.7,237.4,128.8z"/>
			<path class="st0" d="M271.8,89c0,3.7,1.4,6.6,4.1,8.7c2.8,2.1,8,4,15.8,5.7c8.3,1.8,14.4,4.3,18.2,7.6c3.8,3.2,5.7,7.7,5.7,13.2
				c0,6.3-2.3,11.3-7,15.1c-4.7,3.8-10.7,5.7-18,5.7c-11.2,0-21.2-3.9-29.9-11.7l5.1-6.1c3.9,3.6,7.8,6.2,11.8,7.8
				c3.9,1.7,8.4,2.5,13.3,2.5c4.9,0,8.8-1.2,11.8-3.5c3-2.3,4.5-5.4,4.5-9.1c0-3.6-1.3-6.5-4-8.6c-2.7-2.1-7.7-3.9-15.1-5.4
				c-8.7-1.9-14.9-4.4-18.8-7.6c-3.9-3.2-5.8-7.7-5.8-13.7c0-5.9,2.3-10.7,6.8-14.4c4.5-3.8,10.3-5.7,17.3-5.7c9.7,0,18.3,3,25.7,9
				l-4.8,6.4c-6.5-5.3-13.5-8-21.1-8c-4.7,0-8.4,1.1-11.3,3.4C273.2,82.8,271.8,85.6,271.8,89z"/>
		</g>
		<g>
			<path class="st1" d="M108.7,92.2l-0.7,0.4c1.9,4.5,3,9.5,3,14.7c0,20.6-16.4,37.2-36.7,37.2c-15.4,0-28.5-9.6-34-23.2l5.3-3
				c-1.3-3.4-2-7.2-2-11c0-17.2,13.7-31.1,30.6-31.1c10,0,18.9,4.9,24.5,12.5l5.3-3c0,0,0,0,0,0l0.7-0.4c-6.8-9.7-18-16.1-30.6-16.1
				c-20.7,0-37.5,17-37.5,38.1s16.8,38.1,37.5,38.1s37.5-17,37.5-38.1C111.8,102,110.7,96.9,108.7,92.2z"/>
			<g>
				<path class="st1" d="M33.3,125.7"/>
				<path class="st1" d="M104.9,85.4"/>
			</g>
			<path class="st1" d="M104.3,84.7l-64.9,36.5l0.4,0.8l64.9-36.6c0,0-0.1-0.2-0.2-0.3C104.5,85,104.3,84.7,104.3,84.7z"/>
		</g>
	</g>
	<g>
		<text transform="matrix(1 0 0 1 40.6934 168)" class="st2 st3 st4 st5">RESTAURANT</text>
	</g>
</g>
</svg>
