<?xml version="1.0" encoding="utf-8"?>
<!-- Generator: Adobe Illustrator 16.0.0, SVG Export Plug-In . SVG Version: 6.00 Build 0)  -->
<!DOCTYPE svg PUBLIC "-//W3C//DTD SVG 1.1//EN" "http://www.w3.org/Graphics/SVG/1.1/DTD/svg11.dtd">
<svg version="1.1" id="Layer_1" xmlns="http://www.w3.org/2000/svg" xmlns:xlink="http://www.w3.org/1999/xlink" x="0px" y="0px"
	 width="391.333px" height="128.667px" viewBox="0 0 391.333 128.667" enable-background="new 0 0 391.333 128.667"
	 xml:space="preserve">
<g>
	<g>
		<g>
			<path fill="#00AEEF" d="M183.342,81.33c0.16,9.04,6.046,12.757,12.848,12.757c4.877,0,7.821-0.839,10.373-1.896l1.154,4.792
				c-2.391,1.059-6.499,2.271-12.454,2.271c-11.532,0-18.415-7.438-18.415-18.527c0-11.093,6.654-19.824,17.568-19.824
				c12.223,0,15.475,10.551,15.475,17.315c0,1.363-0.154,2.426-0.23,3.112H183.342z M203.309,76.542
				c0.078-4.25-1.777-10.854-9.437-10.854c-6.888,0-9.905,6.22-10.446,10.854H203.309z"/>
			<path fill="#00AEEF" d="M215.996,90.437c3.018,1.833,7.43,3.35,12.072,3.35c6.885,0,10.908-3.567,10.908-8.735
				c0-4.78-2.783-7.517-9.822-10.175c-8.516-2.968-13.777-7.294-13.777-14.513c0-7.971,6.736-13.896,16.869-13.896
				c5.338,0,9.211,1.221,11.535,2.503l-1.863,5.401c-1.697-0.911-5.184-2.433-9.906-2.433c-7.111,0-9.83,4.18-9.83,7.667
				c0,4.788,3.178,7.136,10.375,9.875c8.822,3.346,13.309,7.523,13.309,15.04c0,7.902-5.959,14.733-18.26,14.733
				c-5.029,0-10.527-1.448-13.311-3.267L215.996,90.437z"/>
			<path fill="#00AEEF" d="M287.574,79.815c0,13.59-9.596,19.516-18.65,19.516c-10.141,0-17.955-7.291-17.955-18.911
				c0-12.301,8.209-19.518,18.572-19.518C280.299,60.902,287.574,68.573,287.574,79.815z M257.855,80.194
				c0,8.052,4.725,14.122,11.377,14.122c6.5,0,11.377-5.994,11.377-14.273c0-6.236-3.178-14.129-11.225-14.129
				C261.344,65.914,257.855,73.203,257.855,80.194z"/>
			<g>
				<g>
					<path fill="#00AEEF" d="M295.23,98.496V66.822h-5.264v-5.089h5.264V59.99c0-5.165,1.158-9.877,4.334-12.84
						c2.551-2.431,5.957-3.416,9.125-3.416c2.4,0,4.488,0.53,5.803,1.059l-0.924,5.169c-1.008-0.455-2.4-0.835-4.33-0.835
						c-5.805,0-7.279,5.009-7.279,10.632v1.975h9.057v5.089h-9.057v31.674H295.23z"/>
				</g>
			</g>
			<path fill="#00AEEF" d="M324.555,51.181v10.553h9.748v5.089h-9.748v19.826c0,4.561,1.311,7.138,5.107,7.138
				c1.777,0,3.09-0.224,3.943-0.455l0.311,5.014c-1.313,0.53-3.402,0.909-6.039,0.909c-3.164,0-5.723-0.99-7.35-2.81
				c-1.932-1.972-2.631-5.235-2.631-9.568V66.822h-5.805v-5.089h5.805v-8.809L324.555,51.181z"/>
			<path fill="#00AEEF" d="M347.92,51.408c0.078,2.273-1.623,4.106-4.332,4.106c-2.406,0-4.107-1.833-4.107-4.106
				c0-2.355,1.785-4.181,4.26-4.181C346.297,47.228,347.92,49.053,347.92,51.408z M340.336,98.496V61.733h6.809v36.763H340.336z"/>
			<path fill="#00AEEF" d="M359.99,61.733l5.34,7.9c1.395,2.053,2.551,3.955,3.787,6.007h0.234c1.236-2.218,2.482-4.104,3.713-6.075
				l5.26-7.832h7.361l-12.771,17.779l13.152,18.983h-7.742l-5.49-8.277c-1.469-2.134-2.703-4.175-4.021-6.38h-0.156
				c-1.238,2.205-2.553,4.175-3.943,6.38l-5.422,8.277h-7.508l13.314-18.762l-12.695-18.001H359.99z"/>
		</g>
	</g>
	<g>
		<g>
			
				<radialGradient id="SVGID_1_" cx="685.7871" cy="423.6465" r="90.5843" gradientTransform="matrix(0.3233 0.0045 -0.0083 0.6337 -113.1567 -210.7328)" gradientUnits="userSpaceOnUse">
				<stop  offset="0" style="stop-color:#5BBA47"/>
				<stop  offset="1" style="stop-color:#1C9A48"/>
			</radialGradient>
			<polygon fill="url(#SVGID_1_)" points="103.592,4 103.592,105.677 146.969,125.676 146.969,22 			"/>
			
				<radialGradient id="SVGID_2_" cx="566.8506" cy="424.3096" r="105.923" gradientTransform="matrix(0.3231 0.0131 -0.0272 0.7228 -104.9845 -253.0608)" gradientUnits="userSpaceOnUse">
				<stop  offset="0" style="stop-color:#73BCE8"/>
				<stop  offset="1" style="stop-color:#0081C0"/>
			</radialGradient>
			<polygon fill="url(#SVGID_2_)" points="67.603,4 67.603,105.677 110.981,125.676 110.981,22 			"/>
			
				<radialGradient id="SVGID_3_" cx="459.3721" cy="418.5088" r="114.6117" gradientTransform="matrix(0.323 0.0145 -0.0281 0.675 -104.758 -230.0139)" gradientUnits="userSpaceOnUse">
				<stop  offset="0" style="stop-color:#F89E57"/>
				<stop  offset="0.258" style="stop-color:#F7934A"/>
				<stop  offset="0.753" style="stop-color:#F4772E"/>
				<stop  offset="1" style="stop-color:#F26522"/>
			</radialGradient>
			<polygon fill="url(#SVGID_3_)" points="31.303,4 31.303,105.677 74.684,125.676 74.684,22 			"/>
		</g>
		<g>
			<g>
				<path fill="#EF3B39" d="M31.303,47.673c-1.504,0.631-4.553,1.785-7.102,3.122c-2.558,1.337-4.746,2.602-6.999,4.084
					c-1.124,0.74-2.225,1.519-3.286,2.34c-1.063,0.817-2.086,1.683-3.035,2.609c-0.475,0.464-0.928,0.945-1.352,1.446
					c-0.213,0.245-0.425,0.503-0.613,0.755l-0.294,0.395L8.339,62.83c-0.731,1.075-1.329,2.227-1.684,3.42
					c-0.362,1.191-0.454,2.42-0.253,3.586C6.604,71,7.115,72.107,7.832,73.089c0.715,0.99,1.627,1.862,2.634,2.626
					c1.012,0.766,2.114,1.433,3.264,2.021c2.304,1.181,4.791,2.044,7.316,2.771c2.532,0.727,5.121,1.27,7.734,1.705
					c5.23,0.868,10.553,1.26,15.88,1.454c5.329,0.19,10.676,0.119,16.018-0.121c2.674-0.117,5.345-0.286,8.014-0.493
					c2.668-0.199,5.337-0.429,8.004-0.693c2.667-0.269,5.331-0.563,7.993-0.894c2.661-0.322,5.323-0.672,7.978-1.049
					c2.658-0.379,5.311-0.788,7.962-1.213c2.648-0.424,5.281-0.878,7.908-1.386c5.255-1.018,10.48-2.178,15.656-3.546
					c10.335-2.727,20.523-6.197,30.083-10.978c2.384-1.192,4.724-2.485,6.982-3.896c2.258-1.41,4.437-2.94,6.451-4.647
					c2.01-1.697,3.897-3.572,5.29-5.707c0.688-1.067,1.248-2.197,1.523-3.352c0.068-0.284,0.12-0.58,0.153-0.861
					c0.02-0.194,0.027-0.281,0.037-0.438c0.004-0.144,0.004-0.293,0.004-0.438c-0.012-0.577-0.106-1.15-0.274-1.716
					c-0.339-1.114-0.99-2.173-1.822-3.115c-0.836-0.937-1.843-1.767-2.917-2.503c-2.159-1.474-4.589-2.625-7.076-3.569
					c-2.497-0.948-5.01-1.661-7.627-2.255c-2.612-0.588-5.355-1.064-8.03-1.204l-0.001-0.443c1.376,0.003,2.672,0.091,4.026,0.197
					c1.354,0.107,2.754,0.279,4.097,0.481c2.69,0.423,5.358,0.995,7.988,1.794c2.624,0.8,5.21,1.828,7.646,3.286
					c1.213,0.735,2.389,1.593,3.439,2.656c1.044,1.055,1.981,2.346,2.511,3.883c0.271,0.759,0.436,1.572,0.485,2.388
					c0.016,0.206,0.021,0.409,0.019,0.616c0,0.19-0.012,0.451-0.022,0.604c-0.029,0.417-0.083,0.818-0.159,1.211
					c-0.318,1.585-0.963,2.999-1.719,4.293c-1.533,2.575-3.515,4.695-5.605,6.609c-2.109,1.899-4.357,3.581-6.674,5.135
					c-2.318,1.543-4.705,2.959-7.136,4.275c-2.43,1.317-4.906,2.533-7.422,3.646c-2.509,1.12-5.049,2.161-7.612,3.135
					c-5.126,1.944-10.329,3.649-15.594,5.089c-5.262,1.45-10.573,2.694-15.917,3.731c-2.672,0.517-5.354,0.995-8.035,1.43
					c-2.679,0.425-5.358,0.824-8.043,1.201c-2.687,0.373-5.376,0.723-8.072,1.036c-2.693,0.314-5.392,0.588-8.092,0.839
					c-2.704,0.244-5.41,0.461-8.118,0.628c-2.711,0.159-5.424,0.283-8.142,0.361c-10.855,0.289-21.8-0.017-32.604-2.082
					c-2.696-0.522-5.381-1.171-8.032-2.002c-2.646-0.835-5.255-1.883-7.745-3.269c-1.242-0.7-2.452-1.486-3.585-2.422
					c-1.131-0.931-2.191-2.008-3.053-3.292c-0.862-1.273-1.503-2.789-1.72-4.392c-0.225-1.604,0.006-3.234,0.518-4.688
					c0.513-1.457,1.281-2.754,2.154-3.924l0.335-0.432l0.339-0.413c0.242-0.29,0.479-0.553,0.725-0.823
					c0.492-0.519,1.008-1.012,1.537-1.481c2.118-1.881,4.437-3.415,6.818-4.793c4.773-2.733,9.672-4.89,14.808-6.654L31.303,47.673z
					"/>
			</g>
			<path fill="#FFF200" d="M31.303,47.427c-2.509,0.991-4.76,1.93-7.185,3.134c-2.424,1.206-4.807,2.499-7.1,3.947
				c-2.29,1.439-4.508,3.022-6.478,4.88c-0.983,0.931-1.88,1.926-2.66,3.036c-0.775,1.103-1.422,2.293-1.828,3.568
				c-0.409,1.266-0.542,2.61-0.336,3.905c0.202,1.297,0.747,2.523,1.505,3.599c0.757,1.079,1.712,2.015,2.753,2.833
				c1.046,0.818,2.182,1.527,3.358,2.152c2.361,1.246,4.881,2.181,7.444,2.942c2.568,0.755,5.19,1.331,7.83,1.79
				c5.282,0.927,10.642,1.375,16.003,1.61c5.366,0.229,10.743,0.194,16.114-0.01c10.747-0.422,21.468-1.534,32.128-3.046
				c2.665-0.378,5.329-0.792,7.986-1.219c2.658-0.424,5.308-0.884,7.953-1.393c5.284-1.01,10.537-2.197,15.738-3.594
				c10.396-2.795,20.628-6.375,30.244-11.291c2.402-1.24,4.755-2.565,7.031-4.016c2.277-1.459,4.477-3.035,6.523-4.802
				c2.029-1.767,3.939-3.722,5.371-5.998c0.706-1.138,1.287-2.354,1.573-3.641c0.284-1.271,0.242-2.624-0.165-3.857
				c-0.4-1.245-1.138-2.371-2.033-3.34c-0.9-0.974-1.957-1.805-3.074-2.544c-2.243-1.462-4.724-2.549-7.256-3.438
				c-2.537-0.888-5.181-1.613-7.817-2.141c-1.32-0.262-2.753-0.503-4.084-0.674c-1.331-0.174-2.486-0.266-3.877-0.333l0.006-0.207
				c0.222-0.012,2.173,0.042,3.747,0.192c1.961,0.188,3.875,0.488,4.771,0.646c2.683,0.474,4.875,1.004,7.464,1.853
				c2.581,0.854,5.124,1.909,7.479,3.38c1.172,0.738,2.296,1.587,3.279,2.618c0.984,1.021,1.833,2.245,2.305,3.657
				c0.482,1.416,0.548,2.963,0.236,4.416c-0.308,1.452-0.931,2.779-1.667,3.999c-1.499,2.439-3.456,4.475-5.524,6.321
				c-2.077,1.84-4.306,3.472-6.603,4.98c-2.3,1.505-4.671,2.881-7.087,4.156c-4.835,2.561-9.859,4.698-14.953,6.601
				c-5.098,1.896-10.281,3.527-15.515,4.955c-10.465,2.854-21.14,4.854-31.844,6.302c-10.708,1.484-21.474,2.561-32.284,2.944
				c-5.402,0.191-10.817,0.204-16.226-0.045c-5.407-0.257-10.812-0.792-16.158-1.773c-2.67-0.495-5.326-1.106-7.938-1.906
				c-2.608-0.803-5.18-1.782-7.616-3.101c-1.218-0.661-2.395-1.414-3.492-2.292c-1.096-0.878-2.115-1.893-2.934-3.085
				c-0.821-1.188-1.429-2.576-1.641-4.047c-0.223-1.475-0.035-2.987,0.434-4.365c0.463-1.38,1.178-2.638,2.007-3.782
				c0.825-1.137,1.796-2.179,2.819-3.115c2.053-1.872,4.327-3.434,6.663-4.856c4.691-2.814,9.533-4.811,14.612-6.721L31.303,47.427z
				"/>
		</g>
	</g>
</g>
</svg>
