<?xml version="1.0" encoding="utf-8"?>
<!-- Generator: Adobe Illustrator 19.0.0, SVG Export Plug-In . SVG Version: 6.00 Build 0)  -->
<svg version="1.1" id="Layer_1" xmlns="http://www.w3.org/2000/svg" xmlns:xlink="http://www.w3.org/1999/xlink" x="0px" y="0px"
	 width="117px" height="117px" viewBox="0 0 117 117" style="enable-background:new 0 0 117 117;" xml:space="preserve">
<style type="text/css">
	.st0{fill-rule:evenodd;clip-rule:evenodd;fill:#CC212A;}
	.st1{fill-rule:evenodd;clip-rule:evenodd;fill:#FFFFFF;}
</style>
<path id="XMLID_6_" class="st0" d="M105,117H12c-6.6,0-12-5.4-12-12V12C0,5.4,5.4,0,12,0h93c6.6,0,12,5.4,12,12v93
	C117,111.6,111.6,117,105,117z"/>
<g id="XMLID_7_">
	<path id="XMLID_11_" class="st1" d="M31.2,16.5h54.6l8.4,26l8.4,26L80.6,84.5l-22.1,16l-22.1-16L14.3,68.4l8.5-26L31.2,16.5z
		 M35.8,22.9h44.4L87.1,44L94,65.1L76,78.1L58,91.2L40.1,78.1l-18-13L29,44L35.8,22.9z M35.8,22.9"/>
	<path id="XMLID_8_" class="st1" d="M50.3,57.1l20.9-15.1l-2.1-6.4h-24l-7.4,22.8l19.4,14.1l25.8-18.7l2.7,8.1l-28,20.3l-28-20.3
		L40.3,29h34.6l5.2,15.8l0.1,0.1L56.6,62.1L50.3,57.1z M50.3,57.1"/>
</g>
</svg>
